<svg xmlns="http://www.w3.org/2000/svg" xmlns:xlink="http://www.w3.org/1999/xlink" width="50" height="50" viewBox="0 0 32 32" version="1.1">
    <title>Hop Minifizer 50x50 icon</title>
    <g xmlns="http://www.w3.org/2000/svg" stroke="none" stroke-width="1" fill="none" fill-rule="evenodd">
        <g>
            <path d="M27.082,1.984 C28.699,1.984 30.016,3.299 30.016,4.917 L30.016,27.084 C30.016,28.701 28.7,30.016 27.082,30.016 L4.918,30.016 C3.301,30.016 1.984,28.702 1.984,27.084 L1.984,4.917 C1.984,3.3 3.3,1.984 4.918,1.984 L27.082,1.984 L27.082,1.984 Z M27.082,0 L4.918,0 C2.201,0 0,2.201 0,4.917 L0,27.084 C0,29.799 2.201,32 4.918,32 L27.082,32 C29.799,32 32,29.799 32,27.084 L32,4.917 C32,2.201 29.799,0 27.082,0 L27.082,0 Z"></path>
            <g transform="translate(5.000000, 4.000000)" fill="#F4742B" fill-rule="nonzero">
                <path d="M21.018,2.226 C21.018,3.455 20.02,4.454 18.791,4.454 L3.209,4.454 C1.98,4.454 0.982,3.456 0.982,2.226 L0.982,2.226 C0.982,0.997 1.98,0 3.209,0 L18.791,0 C20.02,0 21.018,0.997 21.018,2.226 L21.018,2.226 Z"></path>
                <path d="M3.209,0.069 C4.438,0.069 5.436,1.066 5.436,2.296 L5.436,22.328 C5.436,23.558 4.438,24.555 3.209,24.555 L3.209,24.555 C1.98,24.555 0.982,23.559 0.982,22.328 L0.982,2.296 C0.982,1.066 1.98,0.069 3.209,0.069 L3.209,0.069 Z"></path>
                <path d="M21.018,22.398 C21.018,23.628 20.02,24.625 18.791,24.625 L3.209,24.625 C1.98,24.625 0.982,23.629 0.982,22.398 L0.982,22.398 C0.982,21.169 1.98,20.171 3.209,20.171 L18.791,20.171 C20.02,20.172 21.018,21.17 21.018,22.398 L21.018,22.398 Z"></path>
            </g>
            <path d="M22,12.457 C22,13.309 21.311,14 20.459,14 L19.541,14 C18.689,14 18,13.309 18,12.457 L18,1.542 C18,0.69 18.689,0 19.541,0 L20.459,0 C21.311,0 22,0.69 22,1.542 L22,12.457 Z" fill="#F4742B" fill-rule="nonzero"></path>
            <path d="M22,30.457 C22,31.309 21.311,32 20.459,32 L19.541,32 C18.689,32 18,31.309 18,30.457 L18,19.543 C18,18.691 18.689,18 19.541,18 L20.459,18 C21.311,18 22,18.691 22,19.543 L22,30.457 Z" fill="#F4742B" fill-rule="nonzero"></path>
            <path d="M25,14 C25,15.105 24.105,16 23,16 L17,16 C15.895,16 15,15.105 15,14 L15,14 C15,12.895 15.895,12 17,12 L23,12 C24.105,12 25,12.895 25,14 L25,14 Z" fill="#F4742B" fill-rule="nonzero"></path>
        </g>
    </g>
</svg>