<?xml version="1.0" encoding="UTF-8"?>
<svg width="42px" height="42px" viewBox="0 0 42 42" version="1.1" xmlns="http://www.w3.org/2000/svg" xmlns:xlink="http://www.w3.org/1999/xlink">
    <title>Icon/Primary/Product/Order Manager</title>
    <g id="Icon/Primary/Product/Order-Manager" stroke="none" stroke-width="1" fill="none" fill-rule="evenodd">
        <circle id="Oval" fill="#FBD36B" cx="21" cy="21" r="20"></circle>
        <path d="M8.46906964,7.25792538 C12.592296,3.42659669 18.2189938,1.2433584 23.7184484,2.24402327 C29.4691327,3.29040118 33.8688512,5.10146356 36.5932581,8.28635561 C39.0730455,11.1852821 40.138099,15.2150184 39.6244739,20.7780258 C39.0847683,26.6235083 36.9707928,31.3405127 33.6361033,34.5961759 C30.2924797,37.8605615 25.7270047,39.6458429 20.3314997,39.6458429 C14.9615454,39.6458429 10.686737,38.1417495 7.63314557,35.2052805 C4.57017525,32.2597922 2.74559129,27.8878855 2.23286924,22.2175009 C1.72155084,16.5626397 4.35292417,11.0826745 8.46906964,7.25792538 Z" id="Oval" stroke="#182E3C"></path>
        <g id="cart-favorite" transform="translate(11.400000, 11.400000)" stroke="#182E3C" stroke-linecap="round" stroke-linejoin="round" stroke-width="1.25">
            <g id="box-3d-50">
                <line x1="4.86011803" y1="2.21240656" x2="14.722623" y2="7.35328525" id="Path"></line>
                <polygon id="Path" points="2.79344262 11.4888429 2.79344262 8.94011803 7.59344262 11.1913932 7.59344262 13.740118"></polygon>
                <polyline id="Path" points="19.042623 5.19344262 10.2295082 9.6 0.157377049 4.56393443"></polyline>
                <line x1="10.2295082" y1="9.6" x2="10.2295082" y2="18.4131148" id="Path"></line>
                <polygon id="Path" points="19.042623 5.19344262 19.042623 14.0065574 10.2295082 18.4131148 0.157377049 13.3770492 0.157377049 4.56393443 8.9704918 0.157377049"></polygon>
            </g>
        </g>
    </g>
</svg>